<svg xmlns="http://www.w3.org/2000/svg" viewBox="0 0 800 600" role="img" aria-labelledby="title desc">
  <title id="title">Intel founded in 1968</title>
  <desc id="desc">A fresh 1968 illustration with a retro campus, a circular Intel medallion, and three founders in front.</desc>
  <defs>
    <linearGradient id="sky" x1="0" y1="0" x2="1" y2="1">
      <stop offset="0%" stop-color="#f9e9bf"/>
      <stop offset="52%" stop-color="#c9e0ed"/>
      <stop offset="100%" stop-color="#5f84a7"/>
    </linearGradient>
    <linearGradient id="ground" x1="0" y1="0" x2="1" y2="0">
      <stop offset="0%" stop-color="#d8c49c"/>
      <stop offset="100%" stop-color="#9f8b6f"/>
    </linearGradient>
    <filter id="shadow" x="-20%" y="-20%" width="140%" height="140%">
      <feDropShadow dx="0" dy="10" stdDeviation="10" flood-color="#1b1816" flood-opacity="0.3"/>
    </filter>
  </defs>
  <rect width="800" height="600" rx="34" fill="url(#sky)"/>
  <rect x="0" y="416" width="800" height="184" fill="url(#ground)"/>
  <path d="M0 398c100-32 180-44 264-40 90 4 164 22 246 24 110 2 202-12 290-32v68H0z" fill="#7c8fa2" opacity="0.16"/>
  <g filter="url(#shadow)">
    <rect x="78" y="160" width="236" height="178" rx="12" fill="#dbd1bb" stroke="#8f846e" stroke-width="5"/>
    <rect x="98" y="184" width="196" height="14" fill="#5f6e85" opacity="0.78"/>
    <rect x="98" y="214" width="196" height="14" fill="#5f6e85" opacity="0.78"/>
    <rect x="98" y="244" width="196" height="14" fill="#5f6e85" opacity="0.78"/>
    <rect x="98" y="274" width="196" height="14" fill="#5f6e85" opacity="0.78"/>
    <rect x="98" y="304" width="196" height="14" fill="#5f6e85" opacity="0.78"/>
    <rect x="118" y="120" width="12" height="76" fill="#404c5e"/>
    <rect x="140" y="104" width="12" height="92" fill="#404c5e"/>
    <rect x="162" y="130" width="12" height="66" fill="#404c5e"/>
  </g>
  <g filter="url(#shadow)">
    <circle cx="610" cy="176" r="72" fill="#0b6fb8" stroke="#f3f8fb" stroke-width="6"/>
    <circle cx="610" cy="176" r="46" fill="none" stroke="#ffffff" stroke-width="8"/>
    <text x="610" y="180" text-anchor="middle" fill="#ffffff" font-family="Georgia, serif" font-size="40" font-style="italic" font-weight="700">intel</text>
    <text x="610" y="222" text-anchor="middle" fill="#ffffff" font-family="Times New Roman, serif" font-size="24" font-weight="700">1968</text>
  </g>
  <g filter="url(#shadow)">
    <circle cx="270" cy="346" r="24" fill="#efd6bf"/>
    <circle cx="398" cy="334" r="24" fill="#efd6bf"/>
    <circle cx="526" cy="348" r="24" fill="#efd6bf"/>
    <path d="M246 456c8-42 24-64 48-64 26 0 42 18 50 64" fill="#efe4d6"/>
    <path d="M374 456c8-42 24-64 48-64 24 0 40 18 48 64" fill="#efe4d6"/>
    <path d="M502 456c8-42 24-64 48-64 26 0 42 18 50 64" fill="#efe4d6"/>
    <path d="M248 320h-38l-22 72h36z" fill="#5d6d81"/>
    <path d="M376 306h-34l-22 86h38z" fill="#5d6d81"/>
    <path d="M504 320h-38l-22 72h36z" fill="#5d6d81"/>
  </g>
</svg>