<svg xmlns="http://www.w3.org/2000/svg" viewBox="0 0 800 600" role="img" aria-labelledby="title desc">
  <title id="title">Intel founded in 1968</title>
  <desc id="desc">A freshly remade 1968 scene with a vintage campus building, a circular Intel seal, and three founders in the foreground.</desc>
  <defs>
    <linearGradient id="sky" x1="0" y1="0" x2="1" y2="1">
      <stop offset="0%" stop-color="#f8e7c1"/>
      <stop offset="50%" stop-color="#c7e0ef"/>
      <stop offset="100%" stop-color="#5f83a7"/>
    </linearGradient>
    <linearGradient id="ground" x1="0" y1="0" x2="1" y2="0">
      <stop offset="0%" stop-color="#d9c39a"/>
      <stop offset="100%" stop-color="#9d8a6d"/>
    </linearGradient>
    <filter id="shadow" x="-20%" y="-20%" width="140%" height="140%">
      <feDropShadow dx="0" dy="10" stdDeviation="10" flood-color="#1a1816" flood-opacity="0.28"/>
    </filter>
  </defs>
  <rect width="800" height="600" rx="34" fill="url(#sky)"/>
  <rect x="0" y="418" width="800" height="182" fill="url(#ground)"/>
  <path d="M0 396c96-30 180-42 264-38 86 4 158 20 238 22 112 3 204-10 298-30v70H0z" fill="#7f93a6" opacity="0.18"/>
  <g filter="url(#shadow)">
    <rect x="72" y="158" width="244" height="184" rx="12" fill="#dbd1bb" stroke="#8d836d" stroke-width="5"/>
    <rect x="92" y="182" width="204" height="14" fill="#5f6e86" opacity="0.82"/>
    <rect x="92" y="214" width="204" height="14" fill="#5f6e86" opacity="0.82"/>
    <rect x="92" y="246" width="204" height="14" fill="#5f6e86" opacity="0.82"/>
    <rect x="92" y="278" width="204" height="14" fill="#5f6e86" opacity="0.82"/>
    <rect x="92" y="310" width="204" height="14" fill="#5f6e86" opacity="0.82"/>
    <rect x="116" y="118" width="12" height="76" fill="#3f4b5d"/>
    <rect x="138" y="104" width="12" height="90" fill="#3f4b5d"/>
    <rect x="160" y="132" width="12" height="62" fill="#3f4b5d"/>
  </g>
  <g filter="url(#shadow)">
    <circle cx="606" cy="174" r="74" fill="#0b6fb8" stroke="#f3f8fb" stroke-width="6"/>
    <circle cx="606" cy="174" r="48" fill="none" stroke="#ffffff" stroke-width="8"/>
    <text x="606" y="178" text-anchor="middle" fill="#ffffff" font-family="Georgia, serif" font-size="40" font-style="italic" font-weight="700">intel</text>
    <text x="606" y="220" text-anchor="middle" fill="#ffffff" font-family="Times New Roman, serif" font-size="24" font-weight="700">1968</text>
  </g>
  <g filter="url(#shadow)">
    <circle cx="270" cy="344" r="24" fill="#f0d8bf"/>
    <circle cx="396" cy="332" r="24" fill="#f0d8bf"/>
    <circle cx="524" cy="346" r="24" fill="#f0d8bf"/>
    <path d="M248 456c8-42 24-64 48-64 26 0 42 18 50 64" fill="#efe3d5"/>
    <path d="M374 456c8-42 24-64 48-64 24 0 40 18 48 64" fill="#efe3d5"/>
    <path d="M502 456c8-42 24-64 48-64 26 0 42 18 50 64" fill="#efe3d5"/>
    <path d="M246 318h-38l-22 72h36z" fill="#5d6d82"/>
    <path d="M372 304h-34l-22 86h38z" fill="#5d6d82"/>
    <path d="M500 318h-38l-22 72h36z" fill="#5d6d82"/>
  </g>
</svg>