<svg xmlns="http://www.w3.org/2000/svg" viewBox="0 0 800 600" role="img" aria-labelledby="title desc">
  <title id="title">First Intel microprocessor</title>
  <desc id="desc">A microchip illustration with glowing pins and a circuit pattern.</desc>
  <defs>
    <linearGradient id="bg" x1="0" y1="0" x2="1" y2="1">
      <stop offset="0%" stop-color="#091b33"/>
      <stop offset="100%" stop-color="#0e6fb7"/>
    </linearGradient>
    <linearGradient id="chip" x1="0" y1="0" x2="1" y2="1">
      <stop offset="0%" stop-color="#00c2ff"/>
      <stop offset="100%" stop-color="#ffffff"/>
    </linearGradient>
  </defs>
  <rect width="800" height="600" rx="36" fill="url(#bg)"/>
  <path d="M92 154h616v292H92z" fill="#0f2b4f" opacity="0.9"/>
  <rect x="236" y="172" width="328" height="256" rx="28" fill="#071224" stroke="#7ee8ff" stroke-width="10"/>
  <rect x="282" y="218" width="236" height="164" rx="18" fill="url(#chip)" opacity="0.92"/>
  <g fill="#7ee8ff">
    <rect x="186" y="244" width="50" height="18" rx="9"/>
    <rect x="186" y="284" width="50" height="18" rx="9"/>
    <rect x="186" y="324" width="50" height="18" rx="9"/>
    <rect x="564" y="244" width="50" height="18" rx="9"/>
    <rect x="564" y="284" width="50" height="18" rx="9"/>
    <rect x="564" y="324" width="50" height="18" rx="9"/>
    <rect x="340" y="124" width="18" height="50" rx="9"/>
    <rect x="380" y="124" width="18" height="50" rx="9"/>
    <rect x="420" y="124" width="18" height="50" rx="9"/>
    <rect x="340" y="428" width="18" height="50" rx="9"/>
    <rect x="380" y="428" width="18" height="50" rx="9"/>
    <rect x="420" y="428" width="18" height="50" rx="9"/>
  </g>
  <path d="M332 282h136" stroke="#0e6fb7" stroke-width="16" stroke-linecap="round"/>
  <path d="M400 214v116" stroke="#0e6fb7" stroke-width="16" stroke-linecap="round"/>
  <circle cx="400" cy="272" r="44" fill="#0e6fb7" opacity="0.2"/>
  <text x="58" y="528" fill="#ffffff" font-family="Arial, sans-serif" font-size="52" font-weight="700">1971</text>
</svg>