<svg xmlns="http://www.w3.org/2000/svg" viewBox="0 0 800 600" role="img" aria-labelledby="title desc">
  <title id="title">Intel 8086 processor</title>
  <desc id="desc">A bold processor illustration with x86-style routing lines and the 8086 label.</desc>
  <defs>
    <linearGradient id="bg" x1="0" y1="0" x2="1" y2="1">
      <stop offset="0%" stop-color="#0f3d7a"/>
      <stop offset="100%" stop-color="#2e96d4"/>
    </linearGradient>
    <linearGradient id="chip" x1="0" y1="0" x2="1" y2="1">
      <stop offset="0%" stop-color="#f4fbff"/>
      <stop offset="100%" stop-color="#98dfff"/>
    </linearGradient>
  </defs>
  <rect width="800" height="600" rx="36" fill="url(#bg)"/>
  <path d="M88 160h624v280H88z" fill="#0b274b" opacity="0.75"/>
  <rect x="204" y="158" width="392" height="284" rx="30" fill="#071224" stroke="#9fe4ff" stroke-width="10"/>
  <rect x="250" y="204" width="300" height="192" rx="22" fill="url(#chip)"/>
  <g stroke="#0f3d7a" stroke-width="10" stroke-linecap="round" fill="none">
    <path d="M270 256h88v-38"/>
    <path d="M530 256h-88v-38"/>
    <path d="M270 344h88v38"/>
    <path d="M530 344h-88v38"/>
    <path d="M400 224v112"/>
    <path d="M314 280h172"/>
  </g>
  <g fill="#0f3d7a">
    <circle cx="358" cy="256" r="10"/>
    <circle cx="442" cy="256" r="10"/>
    <circle cx="358" cy="344" r="10"/>
    <circle cx="442" cy="344" r="10"/>
    <circle cx="400" cy="280" r="12"/>
  </g>
  <text x="336" y="314" fill="#0f3d7a" font-family="Arial, sans-serif" font-size="62" font-weight="700">8086</text>
  <text x="58" y="528" fill="#ffffff" font-family="Arial, sans-serif" font-size="52" font-weight="700">1978</text>
</svg>