<svg xmlns="http://www.w3.org/2000/svg" viewBox="0 0 800 600" role="img" aria-labelledby="title desc">
  <title id="title">Intel RISE strategy</title>
  <desc id="desc">A polished sustainability illustration with rising pillars, green highlights, and a skyline representing Intel's RISE strategy.</desc>
  <defs>
    <linearGradient id="bg" x1="0" y1="0" x2="1" y2="1">
      <stop offset="0%" stop-color="#112032"/>
      <stop offset="55%" stop-color="#29648b"/>
      <stop offset="100%" stop-color="#7ddbd4"/>
    </linearGradient>
    <filter id="shadow" x="-20%" y="-20%" width="140%" height="140%">
      <feDropShadow dx="0" dy="12" stdDeviation="12" flood-color="#06111a" flood-opacity="0.32"/>
    </filter>
  </defs>
  <rect width="800" height="600" rx="34" fill="url(#bg)"/>
  <circle cx="642" cy="126" r="72" fill="#ffeb9c" opacity="0.92"/>
  <path d="M78 442c102-36 186-46 274-44 88 2 156 20 222 24 76 4 134-2 168-14v92H78z" fill="#11283b" opacity="0.76"/>
  <g filter="url(#shadow)">
    <rect x="126" y="322" width="86" height="122" rx="16" fill="#164d69"/>
    <rect x="232" y="276" width="86" height="168" rx="16" fill="#1fb5c6"/>
    <rect x="338" y="228" width="86" height="216" rx="16" fill="#ffffff"/>
    <rect x="444" y="292" width="86" height="152" rx="16" fill="#ffd35c"/>
    <rect x="550" y="310" width="86" height="134" rx="16" fill="#2b6d8b"/>
  </g>
  <g fill="#113042" font-family="Times New Roman, serif" font-weight="700" font-size="30">
    <text x="151" y="392">R</text>
    <text x="258" y="360">I</text>
    <text x="364" y="322">S</text>
    <text x="469" y="382">E</text>
  </g>
  <path d="M194 266l74-70 58 42 74-58 88 30" fill="none" stroke="#ffffff" stroke-width="14" stroke-linecap="round" stroke-linejoin="round" filter="url(#shadow)"/>
  <g fill="#7de8a0" filter="url(#shadow)">
    <circle cx="194" cy="266" r="12"/>
    <circle cx="268" cy="196" r="12"/>
    <circle cx="326" cy="238" r="12"/>
    <circle cx="400" cy="180" r="12"/>
    <circle cx="488" cy="210" r="12"/>
  </g>
  <text x="58" y="528" fill="#ffffff" font-family="Times New Roman, serif" font-size="52" font-weight="700">2020</text>
</svg>