<svg xmlns="http://www.w3.org/2000/svg" viewBox="0 0 800 600" role="img" aria-labelledby="title desc">
  <title id="title">Net-zero by 2040</title>
  <desc id="desc">A polished net-zero illustration with a luminous ring, leaf shapes, and a modern skyline.</desc>
  <defs>
    <linearGradient id="bg" x1="0" y1="0" x2="1" y2="1">
      <stop offset="0%" stop-color="#112235"/>
      <stop offset="50%" stop-color="#2c698b"/>
      <stop offset="100%" stop-color="#5fd0cc"/>
    </linearGradient>
    <linearGradient id="ring" x1="0" y1="0" x2="1" y2="1">
      <stop offset="0%" stop-color="#d8ffff"/>
      <stop offset="100%" stop-color="#ffffff"/>
    </linearGradient>
    <linearGradient id="leaf" x1="0" y1="0" x2="1" y2="1">
      <stop offset="0%" stop-color="#dcffe1"/>
      <stop offset="100%" stop-color="#49c96b"/>
    </linearGradient>
    <filter id="shadow" x="-20%" y="-20%" width="140%" height="140%">
      <feDropShadow dx="0" dy="12" stdDeviation="12" flood-color="#06111a" flood-opacity="0.32"/>
    </filter>
  </defs>
  <rect width="800" height="600" rx="34" fill="url(#bg)"/>
  <path d="M76 444c104-34 184-46 262-46 92 0 164 18 244 18 72 0 128-10 142-14v88H76z" fill="#173043" opacity="0.74"/>
  <g filter="url(#shadow)">
    <rect x="126" y="330" width="86" height="118" rx="16" fill="#175378"/>
    <rect x="226" y="304" width="54" height="144" rx="14" fill="#0f3a5d"/>
    <rect x="616" y="320" width="84" height="128" rx="16" fill="#145477"/>
    <rect x="702" y="342" width="22" height="106" rx="11" fill="#0f3a5d"/>
  </g>
  <circle cx="402" cy="286" r="150" fill="none" stroke="url(#ring)" stroke-width="24" opacity="0.92" filter="url(#shadow)"/>
  <circle cx="402" cy="286" r="98" fill="none" stroke="#46cb6f" stroke-width="28"/>
  <path d="M504 304c-18-4-36-14-50-28-16 38-44 64-84 78 16-60 62-102 134-128" fill="url(#leaf)" filter="url(#shadow)"/>
  <path d="M412 312c30 4 52 18 70 42" fill="none" stroke="#163144" stroke-width="10" stroke-linecap="round"/>
  <path d="M382 188c-40 24-66 66-72 118" fill="none" stroke="#f1ffff" stroke-width="10" stroke-linecap="round" opacity="0.7"/>
  <g fill="#ffffff" opacity="0.92">
    <rect x="182" y="386" width="22" height="50" rx="7"/>
    <rect x="220" y="370" width="22" height="66" rx="7"/>
    <rect x="612" y="370" width="22" height="66" rx="7"/>
    <rect x="650" y="386" width="22" height="50" rx="7"/>
  </g>
  <text x="402" y="332" text-anchor="middle" fill="#ffffff" font-family="Times New Roman, serif" font-size="74" font-weight="700">0</text>
  <text x="58" y="528" fill="#ffffff" font-family="Times New Roman, serif" font-size="52" font-weight="700">2022</text>
</svg>