<svg xmlns="http://www.w3.org/2000/svg" viewBox="0 0 800 600" role="img" aria-labelledby="title desc">
  <title id="title">Renewable electricity in 2023</title>
  <desc id="desc">A brand new sustainability infographic with wind, solar, a rising line, and a bright renewable sky.</desc>
  <defs>
    <linearGradient id="bg" x1="0" y1="0" x2="1" y2="1">
      <stop offset="0%" stop-color="#10233b"/>
      <stop offset="60%" stop-color="#1b86b0"/>
      <stop offset="100%" stop-color="#a2ece4"/>
    </linearGradient>
    <linearGradient id="panel" x1="0" y1="0" x2="1" y2="1">
      <stop offset="0%" stop-color="#101f33"/>
      <stop offset="100%" stop-color="#4e86c0"/>
    </linearGradient>
    <filter id="shadow" x="-20%" y="-20%" width="140%" height="140%">
      <feDropShadow dx="0" dy="12" stdDeviation="12" flood-color="#06111a" flood-opacity="0.28"/>
    </filter>
  </defs>
  <rect width="800" height="600" rx="34" fill="url(#bg)"/>
  <circle cx="624" cy="130" r="72" fill="#ffe46e" opacity="0.97" filter="url(#shadow)"/>
  <path d="M76 444c108-34 188-46 268-44 92 2 160 16 244 22 76 6 130 2 136 0v88H76z" fill="#0c2f4f" opacity="0.78"/>
  <g filter="url(#shadow)">
    <path d="M304 438l52-166 52 166" fill="none" stroke="#f4fbff" stroke-width="16" stroke-linecap="round" stroke-linejoin="round"/>
    <path d="M304 272l52 82 52-82" fill="none" stroke="#f4fbff" stroke-width="16" stroke-linecap="round" stroke-linejoin="round"/>
    <path d="M356 272v178" fill="none" stroke="#f4fbff" stroke-width="16" stroke-linecap="round"/>
    <rect x="470" y="304" width="202" height="112" rx="18" fill="url(#panel)" stroke="#eaf7ff" stroke-width="8"/>
    <g stroke="#7fe8ff" stroke-width="5" opacity="0.92">
      <path d="M490 322h162"/>
      <path d="M490 348h162"/>
      <path d="M490 374h162"/>
      <path d="M544 314v86"/>
      <path d="M598 314v86"/>
    </g>
  </g>
  <path d="M136 464c34-14 68-30 96-52 18-14 34-30 46-46" fill="none" stroke="#64d67b" stroke-width="12" stroke-linecap="round" filter="url(#shadow)"/>
  <circle cx="136" cy="464" r="12" fill="#64d67b" filter="url(#shadow)"/>
  <path d="M168 468h470" stroke="#dff7ff" stroke-width="10" stroke-linecap="round" opacity="0.72"/>
  <path d="M126 118c34 0 62 28 62 62" fill="none" stroke="#f7f3ba" stroke-width="10" stroke-linecap="round" opacity="0.65"/>
  <text x="58" y="528" fill="#ffffff" font-family="Times New Roman, serif" font-size="52" font-weight="700">2023</text>
</svg>