<svg xmlns="http://www.w3.org/2000/svg" viewBox="0 0 800 600" role="img" aria-labelledby="title desc">
  <title id="title">Renewable electricity in 2023</title>
  <desc id="desc">A freshly remade renewable energy landscape with sunrise light, wind, solar, and a cleaner horizon.</desc>
  <defs>
    <linearGradient id="sky" x1="0" y1="0" x2="1" y2="1">
      <stop offset="0%" stop-color="#14263d"/>
      <stop offset="55%" stop-color="#1e7fa5"/>
      <stop offset="100%" stop-color="#9be7df"/>
    </linearGradient>
    <linearGradient id="panel" x1="0" y1="0" x2="1" y2="1">
      <stop offset="0%" stop-color="#10263d"/>
      <stop offset="100%" stop-color="#497fb8"/>
    </linearGradient>
    <filter id="shadow" x="-20%" y="-20%" width="140%" height="140%">
      <feDropShadow dx="0" dy="12" stdDeviation="12" flood-color="#05111a" flood-opacity="0.32"/>
    </filter>
  </defs>
  <rect width="800" height="600" rx="34" fill="url(#sky)"/>
  <circle cx="628" cy="128" r="76" fill="#ffe57a" opacity="0.96" filter="url(#shadow)"/>
  <path d="M72 448c96-34 176-46 258-44 96 2 170 20 252 24 84 4 138 0 146-2v84H72z" fill="#0c3050" opacity="0.76"/>
  <g filter="url(#shadow)">
    <path d="M294 440l54-164 54 164" fill="none" stroke="#f4fbff" stroke-width="16" stroke-linecap="round" stroke-linejoin="round"/>
    <path d="M294 276l54 82 54-82" fill="none" stroke="#f4fbff" stroke-width="16" stroke-linecap="round" stroke-linejoin="round"/>
    <path d="M348 276v178" fill="none" stroke="#f4fbff" stroke-width="16" stroke-linecap="round"/>
    <path d="M348 276l-46-48" fill="none" stroke="#f4fbff" stroke-width="16" stroke-linecap="round"/>
    <path d="M348 276l46-48" fill="none" stroke="#f4fbff" stroke-width="16" stroke-linecap="round"/>
  </g>
  <g filter="url(#shadow)">
    <rect x="460" y="300" width="210" height="112" rx="18" fill="url(#panel)" stroke="#eaf7ff" stroke-width="8"/>
    <g stroke="#7fe8ff" stroke-width="5" opacity="0.92">
      <path d="M480 318h170"/>
      <path d="M480 344h170"/>
      <path d="M480 370h170"/>
      <path d="M540 310v86"/>
      <path d="M600 310v86"/>
    </g>
  </g>
  <path d="M148 462c34-10 66-24 92-42 18-12 34-26 48-44" fill="none" stroke="#61d479" stroke-width="12" stroke-linecap="round" filter="url(#shadow)"/>
  <circle cx="148" cy="462" r="12" fill="#61d479" filter="url(#shadow)"/>
  <path d="M168 464h472" stroke="#dff7ff" stroke-width="10" stroke-linecap="round" opacity="0.72"/>
  <text x="58" y="528" fill="#ffffff" font-family="Times New Roman, serif" font-size="52" font-weight="700">2023</text>
</svg>