<svg xmlns="http://www.w3.org/2000/svg" viewBox="0 0 800 600" role="img" aria-labelledby="title desc">
  <title id="title">Intel sustainability summit in 2024</title>
  <desc id="desc">A conference table scene with speakers, audience silhouettes, and a glowing presentation screen.</desc>
  <defs>
    <linearGradient id="bg" x1="0" y1="0" x2="1" y2="1">
      <stop offset="0%" stop-color="#08172c"/>
      <stop offset="50%" stop-color="#12547f"/>
      <stop offset="100%" stop-color="#1e9ad2"/>
    </linearGradient>
    <filter id="softShadow" x="-20%" y="-20%" width="140%" height="140%">
      <feDropShadow dx="0" dy="12" stdDeviation="14" flood-color="#03111f" flood-opacity="0.38"/>
    </filter>
  </defs>
  <rect width="800" height="600" rx="36" fill="url(#bg)"/>
  <circle cx="400" cy="220" r="124" fill="#ffffff" opacity="0.08"/>
  <rect x="230" y="132" width="340" height="150" rx="22" fill="#eaf7ff" opacity="0.95" filter="url(#softShadow)"/>
  <rect x="254" y="156" width="292" height="102" rx="16" fill="#0b2341"/>
  <path d="M278 226h244" stroke="#7fe8ff" stroke-width="10" stroke-linecap="round" opacity="0.9"/>
  <path d="M302 204h78" stroke="#ffffff" stroke-width="8" stroke-linecap="round" opacity="0.95"/>
  <path d="M410 196l30 32 30-20 24 26" fill="none" stroke="#ffd86b" stroke-width="8" stroke-linecap="round" stroke-linejoin="round"/>
  <ellipse cx="400" cy="352" rx="184" ry="58" fill="#0b2341" opacity="0.94" filter="url(#softShadow)"/>
  <ellipse cx="400" cy="344" rx="128" ry="36" fill="#ffffff" opacity="0.96"/>
  <g fill="#0b2341" filter="url(#softShadow)">
    <circle cx="314" cy="330" r="28"/>
    <circle cx="374" cy="316" r="30"/>
    <circle cx="436" cy="316" r="30"/>
    <circle cx="498" cy="330" r="28"/>
    <circle cx="250" cy="382" r="28"/>
    <circle cx="550" cy="382" r="28"/>
  </g>
  <g fill="#7fe8ff">
    <rect x="298" y="360" width="32" height="72" rx="14"/>
    <rect x="358" y="344" width="32" height="88" rx="14"/>
    <rect x="420" y="344" width="32" height="88" rx="14"/>
    <rect x="484" y="360" width="32" height="72" rx="14"/>
    <rect x="236" y="410" width="28" height="62" rx="13"/>
    <rect x="536" y="410" width="28" height="62" rx="13"/>
  </g>
  <path d="M232 154c28 0 50 22 50 50" fill="none" stroke="#ffd86b" stroke-width="10" stroke-linecap="round"/>
  <path d="M568 154c-28 0-50 22-50 50" fill="none" stroke="#ffd86b" stroke-width="10" stroke-linecap="round"/>
  <text x="58" y="528" fill="#ffffff" font-family="Arial, sans-serif" font-size="52" font-weight="700">2024</text>
</svg>