<svg xmlns="http://www.w3.org/2000/svg" viewBox="0 0 800 600" role="img" aria-labelledby="title desc">
  <title id="title">Intel sustainability summit in 2024</title>
  <desc id="desc">A brand new summit illustration with a top presentation screen and six evenly spaced attendees around a meeting table.</desc>
  <defs>
    <linearGradient id="bg" x1="0" y1="0" x2="1" y2="1">
      <stop offset="0%" stop-color="#16243b"/>
      <stop offset="55%" stop-color="#2f7490"/>
      <stop offset="100%" stop-color="#92dbe2"/>
    </linearGradient>
    <filter id="shadow" x="-20%" y="-20%" width="140%" height="140%">
      <feDropShadow dx="0" dy="12" stdDeviation="12" flood-color="#05111a" flood-opacity="0.28"/>
    </filter>
  </defs>
  <rect width="800" height="600" rx="34" fill="url(#bg)"/>
  <circle cx="398" cy="210" r="126" fill="#ffffff" opacity="0.08"/>
  <rect x="218" y="118" width="364" height="154" rx="24" fill="#eaf7ff" opacity="0.96" filter="url(#shadow)"/>
  <rect x="244" y="142" width="312" height="106" rx="18" fill="#10253f"/>
  <path d="M274 222h252" stroke="#7fe8ff" stroke-width="10" stroke-linecap="round" opacity="0.92"/>
  <path d="M306 200h70" stroke="#ffffff" stroke-width="8" stroke-linecap="round" opacity="0.95"/>
  <path d="M410 194l26 28 30-18 22 20" fill="none" stroke="#ffd86e" stroke-width="8" stroke-linecap="round" stroke-linejoin="round"/>
  <ellipse cx="400" cy="346" rx="194" ry="60" fill="#0d2237" opacity="0.96" filter="url(#shadow)"/>
  <ellipse cx="400" cy="338" rx="138" ry="40" fill="#ffffff" opacity="0.96"/>
  <g filter="url(#shadow)">
    <circle cx="400" cy="236" r="24" fill="#0d2237"/>
    <circle cx="510" cy="280" r="24" fill="#0d2237"/>
    <circle cx="510" cy="388" r="24" fill="#0d2237"/>
    <circle cx="400" cy="446" r="24" fill="#0d2237"/>
    <circle cx="290" cy="388" r="24" fill="#0d2237"/>
    <circle cx="290" cy="280" r="24" fill="#0d2237"/>
  </g>
  <g fill="#7fe8ff">
    <rect x="394" y="262" width="16" height="58" rx="8" transform="rotate(-28 402 262)"/>
    <rect x="484" y="306" width="16" height="58" rx="8" transform="rotate(18 492 306)"/>
    <rect x="484" y="416" width="16" height="58" rx="8" transform="rotate(56 492 416)"/>
    <rect x="394" y="446" width="16" height="58" rx="8" transform="rotate(84 402 446)"/>
    <rect x="304" y="416" width="16" height="58" rx="8" transform="rotate(-56 312 416)"/>
    <rect x="304" y="306" width="16" height="58" rx="8" transform="rotate(-18 312 306)"/>
  </g>
  <path d="M236 154c28 0 50 22 50 50" fill="none" stroke="#ffd86e" stroke-width="10" stroke-linecap="round"/>
  <path d="M564 154c-28 0-50 22-50 50" fill="none" stroke="#ffd86e" stroke-width="10" stroke-linecap="round"/>
  <text x="58" y="528" fill="#ffffff" font-family="Times New Roman, serif" font-size="52" font-weight="700">2024</text>
</svg>