<svg xmlns="http://www.w3.org/2000/svg" viewBox="0 0 800 600" role="img" aria-labelledby="title desc">
  <title id="title">Intel sustainability summit in 2024</title>
  <desc id="desc">A fresh 2024 summit scene with a presentation screen and six people around an oval table.</desc>
  <defs>
    <linearGradient id="sky" x1="0" y1="0" x2="1" y2="1">
      <stop offset="0%" stop-color="#17253c"/>
      <stop offset="50%" stop-color="#2d7290"/>
      <stop offset="100%" stop-color="#8cd7df"/>
    </linearGradient>
    <filter id="shadow" x="-20%" y="-20%" width="140%" height="140%">
      <feDropShadow dx="0" dy="12" stdDeviation="12" flood-color="#06111a" flood-opacity="0.32"/>
    </filter>
  </defs>
  <rect width="800" height="600" rx="34" fill="url(#sky)"/>
  <circle cx="398" cy="210" r="126" fill="#ffffff" opacity="0.08"/>
  <rect x="218" y="120" width="364" height="156" rx="24" fill="#eaf7ff" opacity="0.96" filter="url(#shadow)"/>
  <rect x="244" y="144" width="312" height="108" rx="18" fill="#10253f"/>
  <path d="M274 224h252" stroke="#7fe8ff" stroke-width="10" stroke-linecap="round" opacity="0.92"/>
  <path d="M306 202h70" stroke="#ffffff" stroke-width="8" stroke-linecap="round" opacity="0.95"/>
  <path d="M410 196l26 28 30-18 22 20" fill="none" stroke="#ffd86e" stroke-width="8" stroke-linecap="round" stroke-linejoin="round"/>
  <ellipse cx="400" cy="348" rx="194" ry="60" fill="#0d2237" opacity="0.96" filter="url(#shadow)"/>
  <ellipse cx="400" cy="340" rx="138" ry="40" fill="#ffffff" opacity="0.96"/>
  <g filter="url(#shadow)">
    <circle cx="400" cy="236" r="24" fill="#0d2237"/>
    <circle cx="510" cy="282" r="24" fill="#0d2237"/>
    <circle cx="510" cy="388" r="24" fill="#0d2237"/>
    <circle cx="400" cy="444" r="24" fill="#0d2237"/>
    <circle cx="290" cy="388" r="24" fill="#0d2237"/>
    <circle cx="290" cy="282" r="24" fill="#0d2237"/>
  </g>
  <g fill="#7fe8ff">
    <rect x="394" y="262" width="16" height="58" rx="8" transform="rotate(-28 402 262)"/>
    <rect x="484" y="308" width="16" height="58" rx="8" transform="rotate(18 492 308)"/>
    <rect x="484" y="414" width="16" height="58" rx="8" transform="rotate(56 492 414)"/>
    <rect x="394" y="444" width="16" height="58" rx="8" transform="rotate(84 402 444)"/>
    <rect x="304" y="414" width="16" height="58" rx="8" transform="rotate(-56 312 414)"/>
    <rect x="304" y="308" width="16" height="58" rx="8" transform="rotate(-18 312 308)"/>
  </g>
  <path d="M236 154c28 0 50 22 50 50" fill="none" stroke="#ffd86e" stroke-width="10" stroke-linecap="round"/>
  <path d="M564 154c-28 0-50 22-50 50" fill="none" stroke="#ffd86e" stroke-width="10" stroke-linecap="round"/>
  <text x="58" y="528" fill="#ffffff" font-family="Times New Roman, serif" font-size="52" font-weight="700">2024</text>
</svg>